<svg width="197" height="55" viewBox="0 0 197 55" fill="none" xmlns="http://www.w3.org/2000/svg">
<rect x="0.5" y="0.5" width="196" height="54" rx="6.5" fill="white" stroke="#E1E1E1"/>
<rect x="21" y="10" width="34.4235" height="34.4235" rx="17.2118" fill="#7251CE"/>
<path d="M32.8625 31.356L35.1485 23.5593H38.1038L34.5525 33.7072C34.4763 33.9304 34.3756 34.1699 34.2504 34.4257C34.1252 34.6869 33.9538 34.9346 33.7361 35.1686C33.5184 35.4026 33.2381 35.5931 32.8952 35.7401C32.5577 35.887 32.1386 35.9605 31.6379 35.9605C31.3712 35.9605 31.1753 35.9469 31.0501 35.9197C30.9304 35.8979 30.7453 35.8571 30.4949 35.7972V33.8297C30.5657 33.8297 30.6256 33.8297 30.6746 33.8297C30.729 33.8297 30.7888 33.8297 30.8542 33.8297C31.1481 33.8297 31.3821 33.7998 31.5563 33.7399C31.7359 33.68 31.8719 33.5929 31.9645 33.4786C32.0624 33.3643 32.1386 33.2256 32.1931 33.0623L32.8625 31.356ZM32.2829 23.5593L34.0218 29.7395L34.3239 32.6541H32.4788L29.3356 23.5593H32.2829ZM43.786 30.3681V19.8528H46.5537V32.3928H44.0718L43.786 30.3681ZM38.3651 28.0822V27.9108C38.3651 27.2413 38.4386 26.6317 38.5855 26.082C38.7325 25.5268 38.9502 25.0506 39.2387 24.6533C39.5271 24.2505 39.8863 23.9403 40.3163 23.7226C40.7463 23.5049 41.2416 23.396 41.8022 23.396C42.3029 23.396 42.741 23.513 43.1166 23.7471C43.4921 23.9757 43.8132 24.2968 44.0799 24.7104C44.3466 25.1241 44.5643 25.6085 44.7331 26.1636C44.9018 26.7134 45.0297 27.3066 45.1168 27.9434V28.1475C45.0297 28.7462 44.9018 29.3122 44.7331 29.8456C44.5643 30.3736 44.3466 30.8417 44.0799 31.2499C43.8132 31.6581 43.4894 31.9792 43.1084 32.2132C42.7329 32.4418 42.292 32.5561 41.7858 32.5561C41.2252 32.5561 40.73 32.4445 40.3 32.2214C39.8754 31.9982 39.519 31.6853 39.2305 31.2825C38.9475 30.8797 38.7325 30.4062 38.5855 29.862C38.4386 29.3177 38.3651 28.7244 38.3651 28.0822ZM41.1164 27.9108V28.0822C41.1164 28.4142 41.1382 28.7217 41.1817 29.0047C41.2252 29.2878 41.2987 29.5381 41.4021 29.7558C41.511 29.9681 41.6525 30.1341 41.8267 30.2538C42.0063 30.3736 42.2267 30.4334 42.4879 30.4334C42.8417 30.4334 43.1329 30.3491 43.3615 30.1804C43.5955 30.0116 43.767 29.7722 43.8758 29.4619C43.9901 29.1517 44.0391 28.787 44.0228 28.3679V27.723C44.0337 27.3638 44.0092 27.0481 43.9493 26.7759C43.8894 26.4984 43.7942 26.2671 43.6636 26.082C43.5384 25.8969 43.3778 25.7582 43.1819 25.6656C42.9914 25.5677 42.7655 25.5187 42.5043 25.5187C42.2485 25.5187 42.0308 25.5786 41.8512 25.6983C41.677 25.818 41.5355 25.9868 41.4266 26.2045C41.3178 26.4167 41.2388 26.6698 41.1899 26.9637C41.1409 27.2522 41.1164 27.5679 41.1164 27.9108Z" fill="white"/>
<path d="M72.437 20.0419L74.885 25.8146L77.342 20.0419H80.7947L76.5199 28.564V33.3411H73.2591V28.564L68.9752 20.0419H72.437ZM86.1746 30.8566V26.7828C86.1746 26.5027 86.135 26.2622 86.0559 26.0613C85.9767 25.8603 85.8519 25.705 85.6814 25.5954C85.5109 25.4797 85.2825 25.4219 84.9963 25.4219C84.7649 25.4219 84.567 25.4615 84.4026 25.5406C84.2382 25.6198 84.1134 25.7385 84.0281 25.8968C83.9429 26.0552 83.9002 26.2561 83.9002 26.4997H80.8221C80.8221 26.043 80.9225 25.6198 81.1235 25.2301C81.3305 24.8342 81.6228 24.4902 82.0004 24.1979C82.384 23.9056 82.8407 23.6803 83.3705 23.522C83.9063 23.3576 84.5031 23.2754 85.1607 23.2754C85.9463 23.2754 86.6465 23.4063 87.2615 23.6681C87.8827 23.93 88.3729 24.3227 88.7321 24.8464C89.0914 25.364 89.271 26.0156 89.271 26.8011V30.8475C89.271 31.4929 89.3076 31.9831 89.3806 32.3181C89.4537 32.6469 89.5572 32.9361 89.6912 33.1858V33.3411H86.6039C86.4578 33.0366 86.3481 32.6651 86.2751 32.2267C86.2081 31.7822 86.1746 31.3255 86.1746 30.8566ZM86.5491 27.3035L86.5674 28.9476H85.2064C84.9202 28.9476 84.6766 28.9872 84.4757 29.0663C84.2808 29.1455 84.1225 29.2551 84.0007 29.3952C83.885 29.5291 83.7998 29.6814 83.745 29.8519C83.6962 30.0224 83.6719 30.202 83.6719 30.3908C83.6719 30.5735 83.7145 30.7379 83.7998 30.884C83.8911 31.0241 84.0129 31.1337 84.1651 31.2128C84.3174 31.292 84.4879 31.3316 84.6766 31.3316C85.0176 31.3316 85.3069 31.2676 85.5444 31.1398C85.7879 31.0058 85.9737 30.8444 86.1015 30.6557C86.2294 30.4669 86.2933 30.2903 86.2933 30.1259L86.9693 31.3864C86.8475 31.63 86.7074 31.8766 86.5491 32.1262C86.3969 32.3759 86.205 32.6073 85.9737 32.8204C85.7483 33.0275 85.4713 33.198 85.1425 33.3319C84.8136 33.4598 84.4148 33.5237 83.9459 33.5237C83.337 33.5237 82.7767 33.3989 82.2652 33.1493C81.7598 32.8996 81.3549 32.5525 81.0504 32.108C80.7459 31.6574 80.5937 31.1398 80.5937 30.5552C80.5937 30.0437 80.6851 29.587 80.8677 29.1851C81.0565 28.7832 81.3397 28.4422 81.7172 28.1621C82.0947 27.882 82.5758 27.6688 83.1604 27.5227C83.745 27.3766 84.433 27.3035 85.2247 27.3035H86.5491ZM94.0847 25.906V33.3411H91.0065V23.4581H93.8837L94.0847 25.906ZM97.0075 23.385L96.9527 26.2439C96.831 26.2318 96.6665 26.2165 96.4595 26.1983C96.2525 26.18 96.0789 26.1709 95.9389 26.1709C95.5796 26.1709 95.269 26.2135 95.0072 26.2987C94.7514 26.3779 94.5383 26.4997 94.3678 26.6641C94.2034 26.8224 94.0816 27.0234 94.0025 27.2669C93.9294 27.5105 93.8959 27.7937 93.902 28.1164L93.3448 27.751C93.3448 27.0873 93.4087 26.4845 93.5366 25.9425C93.6706 25.3945 93.8594 24.9225 94.1029 24.5267C94.3465 24.1248 94.6418 23.8173 94.9889 23.6042C95.336 23.385 95.7257 23.2754 96.1581 23.2754C96.3103 23.2754 96.4595 23.2845 96.6056 23.3028C96.7579 23.321 96.8918 23.3484 97.0075 23.385ZM103.566 31.0758V19.3112H106.662V33.3411H103.885L103.566 31.0758ZM97.5008 28.5183V28.3265C97.5008 27.5775 97.583 26.8955 97.7474 26.2805C97.9118 25.6594 98.1554 25.1265 98.4781 24.682C98.8009 24.2314 99.2028 23.8843 99.6838 23.6407C100.165 23.3972 100.719 23.2754 101.346 23.2754C101.906 23.2754 102.397 23.4063 102.817 23.6681C103.237 23.9239 103.596 24.2832 103.895 24.746C104.193 25.2087 104.437 25.7507 104.625 26.3718C104.814 26.9868 104.957 27.6506 105.055 28.363V28.5914C104.957 29.2612 104.814 29.8945 104.625 30.4913C104.437 31.0819 104.193 31.6056 103.895 32.0623C103.596 32.519 103.234 32.8783 102.808 33.1401C102.387 33.3959 101.894 33.5237 101.328 33.5237C100.701 33.5237 100.147 33.3989 99.6655 33.1493C99.1906 32.8996 98.7917 32.5494 98.469 32.0988C98.1523 31.6482 97.9118 31.1185 97.7474 30.5095C97.583 29.9006 97.5008 29.2368 97.5008 28.5183ZM100.579 28.3265V28.5183C100.579 28.8898 100.603 29.2338 100.652 29.5504C100.701 29.8671 100.783 30.1472 100.899 30.3908C101.02 30.6283 101.179 30.814 101.374 30.948C101.575 31.0819 101.821 31.1489 102.113 31.1489C102.509 31.1489 102.835 31.0545 103.091 30.8657C103.353 30.677 103.544 30.409 103.666 30.062C103.794 29.7149 103.849 29.3069 103.831 28.838V28.1164C103.843 27.7145 103.815 27.3613 103.748 27.0569C103.681 26.7463 103.575 26.4875 103.429 26.2805C103.289 26.0734 103.109 25.9182 102.89 25.8146C102.677 25.705 102.424 25.6502 102.132 25.6502C101.846 25.6502 101.602 25.7172 101.401 25.8512C101.206 25.9851 101.048 26.1739 100.926 26.4175C100.804 26.655 100.716 26.9381 100.661 27.2669C100.606 27.5897 100.579 27.9429 100.579 28.3265ZM113.54 30.8566V26.7828C113.54 26.5027 113.501 26.2622 113.421 26.0613C113.342 25.8603 113.217 25.705 113.047 25.5954C112.876 25.4797 112.648 25.4219 112.362 25.4219C112.13 25.4219 111.933 25.4615 111.768 25.5406C111.604 25.6198 111.479 25.7385 111.394 25.8968C111.308 26.0552 111.266 26.2561 111.266 26.4997H108.188C108.188 26.043 108.288 25.6198 108.489 25.2301C108.696 24.8342 108.988 24.4902 109.366 24.1979C109.75 23.9056 110.206 23.6803 110.736 23.522C111.272 23.3576 111.869 23.2754 112.526 23.2754C113.312 23.2754 114.012 23.4063 114.627 23.6681C115.248 23.93 115.738 24.3227 116.098 24.8464C116.457 25.364 116.637 26.0156 116.637 26.8011V30.8475C116.637 31.4929 116.673 31.9831 116.746 32.3181C116.819 32.6469 116.923 32.9361 117.057 33.1858V33.3411H113.969C113.823 33.0366 113.714 32.6651 113.641 32.2267C113.574 31.7822 113.54 31.3255 113.54 30.8566ZM113.915 27.3035L113.933 28.9476H112.572C112.286 28.9476 112.042 28.9872 111.841 29.0663C111.646 29.1455 111.488 29.2551 111.366 29.3952C111.251 29.5291 111.165 29.6814 111.11 29.8519C111.062 30.0224 111.037 30.202 111.037 30.3908C111.037 30.5735 111.08 30.7379 111.165 30.884C111.257 31.0241 111.378 31.1337 111.531 31.2128C111.683 31.292 111.853 31.3316 112.042 31.3316C112.383 31.3316 112.672 31.2676 112.91 31.1398C113.153 31.0058 113.339 30.8444 113.467 30.6557C113.595 30.4669 113.659 30.2903 113.659 30.1259L114.335 31.3864C114.213 31.63 114.073 31.8766 113.915 32.1262C113.762 32.3759 113.571 32.6073 113.339 32.8204C113.114 33.0275 112.837 33.198 112.508 33.3319C112.179 33.4598 111.78 33.5237 111.311 33.5237C110.702 33.5237 110.142 33.3989 109.631 33.1493C109.125 32.8996 108.72 32.5525 108.416 32.108C108.111 31.6574 107.959 31.1398 107.959 30.5552C107.959 30.0437 108.051 29.587 108.233 29.1851C108.422 28.7832 108.705 28.4422 109.083 28.1621C109.46 27.882 109.941 27.6688 110.526 27.5227C111.11 27.3766 111.799 27.3035 112.59 27.3035H113.915ZM121.368 25.568V33.3411H118.29V23.4581H121.176L121.368 25.568ZM121.003 28.0616L120.281 28.0799C120.281 27.3248 120.372 26.6519 120.555 26.0613C120.738 25.4645 120.997 24.9591 121.331 24.545C121.666 24.1309 122.065 23.8173 122.528 23.6042C122.997 23.385 123.518 23.2754 124.09 23.2754C124.547 23.2754 124.964 23.3424 125.341 23.4763C125.725 23.6103 126.054 23.8265 126.328 24.1248C126.608 24.4232 126.821 24.819 126.967 25.3123C127.119 25.7994 127.195 26.4023 127.195 27.1208V33.3411H124.099V27.1117C124.099 26.7159 124.044 26.4144 123.935 26.2074C123.825 25.9943 123.667 25.8481 123.46 25.769C123.253 25.6898 123 25.6502 122.702 25.6502C122.385 25.6502 122.117 25.7111 121.898 25.8329C121.679 25.9547 121.502 26.1252 121.368 26.3444C121.24 26.5575 121.146 26.8102 121.085 27.1025C121.03 27.3948 121.003 27.7145 121.003 28.0616ZM129.104 31.8979C129.104 31.4595 129.263 31.0941 129.579 30.8018C129.896 30.5034 130.304 30.3542 130.803 30.3542C131.309 30.3542 131.717 30.5034 132.027 30.8018C132.344 31.0941 132.502 31.4595 132.502 31.8979C132.502 32.3363 132.344 32.7047 132.027 33.0031C131.717 33.2954 131.309 33.4415 130.803 33.4415C130.304 33.4415 129.896 33.2954 129.579 33.0031C129.263 32.7047 129.104 32.3363 129.104 31.8979ZM140.248 31.0758V19.3112H143.344V33.3411H140.568L140.248 31.0758ZM134.183 28.5183V28.3265C134.183 27.5775 134.265 26.8955 134.43 26.2805C134.594 25.6594 134.838 25.1265 135.16 24.682C135.483 24.2314 135.885 23.8843 136.366 23.6407C136.847 23.3972 137.401 23.2754 138.028 23.2754C138.589 23.2754 139.079 23.4063 139.499 23.6681C139.919 23.9239 140.278 24.2832 140.577 24.746C140.875 25.2087 141.119 25.7507 141.308 26.3718C141.496 26.9868 141.639 27.6506 141.737 28.363V28.5914C141.639 29.2612 141.496 29.8945 141.308 30.4913C141.119 31.0819 140.875 31.6056 140.577 32.0623C140.278 32.519 139.916 32.8783 139.49 33.1401C139.07 33.3959 138.576 33.5237 138.01 33.5237C137.383 33.5237 136.829 33.3989 136.348 33.1493C135.873 32.8996 135.474 32.5494 135.151 32.0988C134.835 31.6482 134.594 31.1185 134.43 30.5095C134.265 29.9006 134.183 29.2368 134.183 28.5183ZM137.261 28.3265V28.5183C137.261 28.8898 137.286 29.2338 137.334 29.5504C137.383 29.8671 137.465 30.1472 137.581 30.3908C137.703 30.6283 137.861 30.814 138.056 30.948C138.257 31.0819 138.503 31.1489 138.796 31.1489C139.191 31.1489 139.517 31.0545 139.773 30.8657C140.035 30.677 140.227 30.409 140.348 30.062C140.476 29.7149 140.531 29.3069 140.513 28.838V28.1164C140.525 27.7145 140.498 27.3613 140.431 27.0569C140.364 26.7463 140.257 26.4875 140.111 26.2805C139.971 26.0734 139.791 25.9182 139.572 25.8146C139.359 25.705 139.106 25.6502 138.814 25.6502C138.528 25.6502 138.284 25.7172 138.083 25.8512C137.888 25.9851 137.73 26.1739 137.608 26.4175C137.486 26.655 137.398 26.9381 137.343 27.2669C137.289 27.5897 137.261 27.9429 137.261 28.3265ZM144.705 28.5V28.3082C144.705 27.5836 144.809 26.9168 145.016 26.3079C145.223 25.6928 145.527 25.16 145.929 24.7094C146.331 24.2588 146.828 23.9087 147.418 23.659C148.009 23.4033 148.691 23.2754 149.464 23.2754C150.244 23.2754 150.929 23.4033 151.519 23.659C152.116 23.9087 152.615 24.2588 153.017 24.7094C153.419 25.16 153.724 25.6928 153.931 26.3079C154.138 26.9168 154.241 27.5836 154.241 28.3082V28.5C154.241 29.2186 154.138 29.8854 153.931 30.5004C153.724 31.1093 153.419 31.6421 153.017 32.0988C152.615 32.5494 152.119 32.8996 151.529 33.1493C150.938 33.3989 150.256 33.5237 149.482 33.5237C148.709 33.5237 148.024 33.3989 147.427 33.1493C146.831 32.8996 146.331 32.5494 145.929 32.0988C145.527 31.6421 145.223 31.1093 145.016 30.5004C144.809 29.8854 144.705 29.2186 144.705 28.5ZM147.784 28.3082V28.5C147.784 28.8715 147.811 29.2186 147.866 29.5413C147.921 29.864 148.012 30.1472 148.14 30.3908C148.268 30.6283 148.441 30.814 148.66 30.948C148.88 31.0819 149.154 31.1489 149.482 31.1489C149.805 31.1489 150.073 31.0819 150.286 30.948C150.505 30.814 150.679 30.6283 150.807 30.3908C150.935 30.1472 151.026 29.864 151.081 29.5413C151.136 29.2186 151.163 28.8715 151.163 28.5V28.3082C151.163 27.9489 151.136 27.611 151.081 27.2943C151.026 26.9716 150.935 26.6885 150.807 26.4449C150.679 26.1952 150.505 26.0004 150.286 25.8603C150.067 25.7202 149.793 25.6502 149.464 25.6502C149.141 25.6502 148.871 25.7202 148.651 25.8603C148.438 26.0004 148.268 26.1952 148.14 26.4449C148.012 26.6885 147.921 26.9716 147.866 27.2943C147.811 27.611 147.784 27.9489 147.784 28.3082ZM159.786 31.1489C160.072 31.1489 160.315 31.0971 160.516 30.9936C160.723 30.884 160.879 30.7318 160.982 30.5369C161.092 30.336 161.144 30.0954 161.137 29.8153H164.033C164.039 30.5582 163.856 31.2098 163.485 31.77C163.12 32.3241 162.62 32.7565 161.987 33.067C161.36 33.3715 160.65 33.5237 159.859 33.5237C159.085 33.5237 158.409 33.3989 157.831 33.1493C157.252 32.8935 156.768 32.5403 156.379 32.0897C155.995 31.633 155.706 31.1002 155.511 30.4913C155.322 29.8823 155.228 29.2216 155.228 28.5092V28.2991C155.228 27.5866 155.322 26.9259 155.511 26.317C155.706 25.702 155.995 25.1692 156.379 24.7186C156.768 24.2618 157.249 23.9087 157.822 23.659C158.4 23.4033 159.073 23.2754 159.84 23.2754C160.663 23.2754 161.387 23.4307 162.014 23.7412C162.648 24.0518 163.144 24.5024 163.503 25.093C163.862 25.6837 164.039 26.3992 164.033 27.2395H161.137C161.144 26.9412 161.098 26.6732 161 26.4357C160.903 26.1983 160.751 26.0095 160.544 25.8694C160.343 25.7233 160.084 25.6502 159.767 25.6502C159.451 25.6502 159.195 25.7202 159 25.8603C158.805 26.0004 158.656 26.1952 158.553 26.4449C158.455 26.6885 158.388 26.9686 158.352 27.2852C158.321 27.6019 158.306 27.9398 158.306 28.2991V28.5092C158.306 28.8745 158.321 29.2186 158.352 29.5413C158.388 29.858 158.458 30.1381 158.562 30.3816C158.665 30.6191 158.814 30.8079 159.009 30.948C159.204 31.0819 159.463 31.1489 159.786 31.1489ZM170.527 30.5643C170.527 30.3938 170.469 30.2477 170.354 30.1259C170.244 29.998 170.049 29.8823 169.769 29.7788C169.489 29.6692 169.096 29.5596 168.591 29.45C168.11 29.3465 167.656 29.2094 167.23 29.0389C166.81 28.8684 166.441 28.6614 166.125 28.4178C165.808 28.1743 165.558 27.885 165.376 27.5501C165.199 27.2152 165.111 26.8316 165.111 26.3992C165.111 25.979 165.199 25.5832 165.376 25.2118C165.558 24.8342 165.823 24.5024 166.17 24.2162C166.524 23.9239 166.953 23.6955 167.458 23.5311C167.964 23.3606 168.539 23.2754 169.185 23.2754C170.074 23.2754 170.841 23.4124 171.486 23.6864C172.132 23.9543 172.628 24.3319 172.975 24.819C173.328 25.3001 173.505 25.8573 173.505 26.4906H170.427C170.427 26.2409 170.384 26.0278 170.299 25.8512C170.22 25.6746 170.089 25.5406 169.906 25.4493C169.723 25.3518 169.48 25.3031 169.175 25.3031C168.962 25.3031 168.767 25.3427 168.591 25.4219C168.42 25.501 168.283 25.6106 168.18 25.7507C168.076 25.8907 168.025 26.0552 168.025 26.2439C168.025 26.3779 168.055 26.4997 168.116 26.6093C168.183 26.7128 168.283 26.8102 168.417 26.9016C168.551 26.9868 168.722 27.066 168.929 27.1391C169.136 27.206 169.386 27.2669 169.678 27.3217C170.342 27.4435 170.963 27.6171 171.541 27.8424C172.12 28.0677 172.589 28.3874 172.948 28.8015C173.313 29.2155 173.496 29.7727 173.496 30.473C173.496 30.9114 173.395 31.3164 173.194 31.6878C172.993 32.0532 172.704 32.3759 172.327 32.656C171.949 32.93 171.495 33.1432 170.966 33.2954C170.436 33.4476 169.839 33.5237 169.175 33.5237C168.232 33.5237 167.434 33.3563 166.782 33.0214C166.131 32.6804 165.638 32.2541 165.303 31.7426C164.974 31.225 164.809 30.7013 164.809 30.1716H167.677C167.69 30.476 167.763 30.7257 167.897 30.9205C168.037 31.1154 168.222 31.2585 168.454 31.3498C168.685 31.4412 168.953 31.4869 169.258 31.4869C169.538 31.4869 169.769 31.4473 169.952 31.3681C170.141 31.289 170.284 31.1824 170.381 31.0484C170.479 30.9084 170.527 30.747 170.527 30.5643Z" fill="#7251CE"/>
</svg>
